<svg fill="none" height="29" viewBox="0 0 29 29" width="29" xmlns="http://www.w3.org/2000/svg"><path d="m14.5 19.937c4.5 0 8.156-4.473 8.156-9.96898 0-5.49597-3.656-9.96802-8.156-9.96802-1.1369.0217285-2.2537.303345-3.2649.823364-1.0112.520016-1.89004 1.264526-2.56908 2.176636-1.5394 1.99573-2.35782 4.45386-2.32203 6.974 0 5.491 3.65601 9.963 8.15601 9.963zm0-18.12401c3.5 0 6.344 3.65906 6.344 8.156 0 4.49691-2.846 8.15601-6.344 8.15601s-6.34396-3.66-6.34497-8.15601c-.00101-4.49597 2.84497-8.156 6.34497-8.156zm6.344 16.31201c-.2404 0-.471.0955-.641.2655s-.2655.4006-.2655.641c0 .2405.0955.4709.2655.641.17.17.4006.2655.641.2655 1.682.0018 3.2945.6709 4.4839 1.8602 1.1893 1.1893 1.8582 2.8019 1.8601 4.4838-.0005.2401-.0962.4703-.266.64-.1698.1698-.3999.2655-.64.266h-23.56203c-.24011-.0005-.47021-.0962-.64001-.266-.1698-.1697-.26548-.3999-.266-.64.00211-1.6819.67121-3.2943 1.86048-4.4835 1.18927-1.1894 2.80163-1.8584 4.48352-1.8605.24029 0 .4707-.0955.64062-.2654.16993-.1699.26538-.4003.26538-.6406s-.09545-.4707-.26538-.6406c-.16992-.17-.40033-.2654-.64062-.2654-2.16254.0018-4.23596.8615-5.76538 2.3904-1.529421 1.5289-2.38992497 3.602-2.39258 5.7646.00079346.7208.287506 1.412.797241 1.9218.509739.5097 1.200869.7965 1.921749.7972h23.56301c.7207-.0011 1.4116-.2878 1.9211-.7976s.7961-1.2007.7969-1.9214c-.0027-2.1623-.8628-4.2352-2.3917-5.7643-1.529-1.5289-3.602-2.389-5.7643-2.3917z" fill="#e8e8e8"/></svg>