<svg fill="none" height="29" viewBox="0 0 31.9956 29" width="31.995575" xmlns="http://www.w3.org/2000/svg"><path d="m26.2009 29c-.6477-.0261-1.2594-.3053-1.7037-.7773-.4443-.4721-.6858-1.0995-.6727-1.7477.0131-.6481.2797-1.2653.7428-1.719.463-.4539 1.0854-.708 1.7337-.708s1.2707.2541 1.7337.708c.463.4537.7297 1.0709.7428 1.719.0131.6482-.2285 1.2756-.6728 1.7477-.4443.472-1.0559.7512-1.7037.7773zm-19.44797-2.6801c0-.53.15717-1.048.45166-1.4888.29449-.4407.71304-.7842 1.20276-.9871.48971-.2029 1.02859-.2559 1.54846-.1525.51989.1034.99739.3587 1.37219.7334.3748.3749.6301.8524.7335 1.3722.1034.5199.0503 1.0587-.1526 1.5485-.2028.4897-.5463.9083-.987 1.2027-.4408.2945-.95886.4517-1.48892.4517-.35211.0002-.70086-.0688-1.02624-.2034s-.62103-.332-.87012-.5808c-.24908-.2489-.44662-.5444-.58142-.8697s-.20422-.674-.20422-1.0262zm3.80007-5.6339c-.2595.0008-.512-.0837-.71889-.2403-.20685-.1566-.35654-.3767-.42615-.6267l-4.83301-17.45499h-3.39294c-.31348 0-.614139-.12451-.835819-.34619-.221679-.22168-.346191-.52234-.346191-.83581 0-.31348.124512-.614139.346191-.835819.22168-.221679.522339-.346191.835819-.346191h4.281c.25949-.00085449.51203.0837402.71875.240601.20673.15686.35608.377319.42517.627441l4.83297 17.454958h13.178l4.3831-10.04798h-14.6c-.1582.00464-.3156-.02258-.4631-.07995s-.282-.14368-.3955-.25403c-.1136-.11023-.2038-.24219-.2654-.38794s-.0934-.30237-.0934-.46057c0-.15833.0318-.31494.0934-.46069.0616-.14576.1518-.27771.2654-.38794.1135-.11023.248-.19666.3955-.25391.1475-.05737.3049-.08459.4631-.07996h16.413c.1956-.00012.3882.04859.5604.14173.1721.09302.3184.22754.4255.39123.1079.16431.1735.35266.1909.54847.0175.1958-.0137.39282-.0908.5736l-5.405 12.41204c-.0924.2105-.2441.3897-.4365.5156-.1925.126-.4175.1931-.6475.1933z" fill="#e8e8e8"/></svg>