<svg fill="none" height="31.93457" viewBox="0 0 44.989 31.9346" width="44.989044" xmlns="http://www.w3.org/2000/svg"><path d="m30.258 27.2429h-15.477c-.2072 1.308-.8743 2.4991-1.8813 3.3592-1.007.86-2.2879 1.3325-3.61216 1.3325-1.32431 0-2.60517-.4725-3.61219-1.3325-1.00702-.8601-1.67413-2.0512-1.88131-3.3592h-1.93701c-.49485-.0032-.968175-.2025-1.316289-.5542-.348114-.3516-.54257205-.8269-.54071048-1.3218v-23.48995c-.00213623-.49499.19219948-.970608.54034448-1.322507.348144-.351898.821655-.55126917 1.316655-.554443h25.55107c.4949.00317383.9682.202515 1.3162.554443.348.351929.5421.827607.5397 1.322507v1.90503h7.121c.0804-.00033.1604.0101.238.03101 2.3.20001 3.457 1.3999 4.677 3.46191l3.559 6.094c.0849.1446.1297.3093.13.477v12.4581c.0011.2475-.0961.4852-.2703.6611s-.4111.2755-.6587.2768h-2.814c-.2072 1.308-.8743 2.4991-1.8813 3.3592-1.007.86-2.2879 1.3325-3.6122 1.3325s-2.6051-.4725-3.6121-1.3325c-1.0071-.8601-1.6742-2.0512-1.8814-3.3592zm1.778-.9389c.0079.7329.2325 1.4471.6454 2.0527s.9958 1.0755 1.6752 1.3506 1.4251.343 2.143.1953c.718-.1478 1.3762-.5046 1.8918-1.0256.5156-.5211.8655-1.1829 1.0058-1.9024.1402-.7195.0645-1.4643-.2177-2.1409-.2821-.6765-.7581-1.2543-1.368-1.6608-.6099-.4066-1.3265-.6238-2.0595-.6241-.9903.0064-1.9377.4055-2.6344 1.1094-.6966.704-1.0856 1.6554-1.0816 2.6458zm-26.46395 0c.00788.7329.23242 1.4471.64536 2.0527.41293.6056.99579 1.0755 1.67523 1.3506.67941.2751 1.42505.343 2.14296.1953.718-.1478 1.3762-.5046 1.8918-1.0256.5156-.5211.8655-1.1829 1.0058-1.9024.1402-.7195.0645-1.4643-.2177-2.1409-.2821-.6765-.7581-1.2543-1.368-1.6608-.6099-.4066-1.3265-.6238-2.05948-.6241-.99053.0061-1.93817.4049-2.635 1.1089-.69687.704-1.08597 1.6557-1.08198 2.6463zm35.67195-.938h1.886v-5.6182h-2.736c-.1226-.0005-.2439-.0251-.3569-.0725-.1131-.0474-.2157-.1167-.302-.2039-.0863-.0871-.1545-.1904-.2009-.3039-.0463-.1135-.0698-.2351-.0692-.3577v-1.8469c-.0003-.7207.2753-1.4141.77-1.938h-6.379c-.0772-.0001-.1541-.0099-.229-.0291-.7047-.0628-1.3602-.3877-1.8368-.9106-.4767-.5229-.7397-1.2058-.7372-1.9133v-4.69998c-.0006-.12265.0229-.24435.0692-.35791.0463-.11355.1146-.21676.2009-.30395.0862-.08719.1888-.15656.3019-.2041.1131-.04755.2343-.07236.357-.073h6.483c-.3443-.31867-.7517-.56174-1.1957-.71314-.4441-.15139-.915-.20794-1.3823-.16601h-6.623v19.70799h.994c.2072-1.308.8744-2.4991 1.8814-3.3591 1.007-.8601 2.2878-1.3325 3.6121-1.3325s2.6052.4724 3.6122 1.3325c1.007.86 1.6741 2.0511 1.8813 3.3591zm-26.464 0h12.627v-23.49002h-25.54997v23.49002h1.93701c.20718-1.308.87429-2.4994 1.88131-3.3594 1.00702-.8601 2.28788-1.3325 3.61219-1.3325 1.32426 0 2.60516.4724 3.61216 1.3325 1.007.86 1.6741 2.0514 1.8813 3.3594zm26.5421-8.4002v.9092h1.8079v-1.8472h-.879c-.2468.0016-.483.101-.6569.2762s-.2713.412-.2711.6589zm-8.4131-4.792c-.001.2525.098.4953.2756.6748.1775.1796.4189.2814.6714.2832.0639-.0001.1276.0066.1901.0201h8.5249l-2.7659-4.73588h-6.9001zm.093 14.1321c-.0029-.7326.2849-1.4364.8003-1.957.5153-.5206 1.2162-.8156 1.9487-.8201.2488 0 .4874.099.6633.2749s.2747.4143.2747.6631-.0988.4874-.2747.6633-.4145.2747-.6633.2747c-.1783-.0016-.3531.05-.5021.1479-.1491.098-.2657.2378-.335.4021-.0694.1643-.0884.3457-.0545.5208.0338.1751.1189.3362.2444.4629.1255.1266.2859.2131.4607.2485s.3561.0181.5211-.0498c.1649-.0679.3059-.1834.4052-.3315.0992-.1482.1522-.3224.1522-.5008 0-.2462.0978-.4823.272-.6565.1741-.1741.4103-.2719.6565-.2719.2463 0 .4825.0978.6566.2719.1741.1742.2719.4103.2719.6565 0 .7294-.2897 1.4289-.8054 1.9446-.5158.5157-1.2152.8054-1.9446.8054-.7293 0-1.4288-.2897-1.9445-.8054-.5158-.5157-.8055-1.2152-.8055-1.9446zm-26.46398 0c-.00292-.7326.28489-1.4364.80027-1.957.51535-.5206 1.21618-.8156 1.94876-.8201.24875 0 .48733.099.66327.2749.17588.1759.27468.4143.27468.6631s-.0988.4874-.27468.6633c-.17594.1759-.41452.2747-.66327.2747-.17835-.0016-.35315.05-.5022.1479-.14908.098-.26565.2378-.33499.4021-.06937.1643-.08835.3457-.0545.5208.03381.1751.11889.3362.24444.4629.12552.1266.28589.2131.46069.2485.17478.0354.35614.0181.52109-.0498.16492-.0679.30594-.1834.40522-.3315.0992-.1482.1522-.3224.1522-.5008 0-.2462.0979-.4823.272-.6565.1741-.1741.4103-.2719.6565-.2719.2463 0 .4825.0978.6566.2719.1741.1742.2719.4103.2719.6565 0 .7294-.2897 1.4289-.8054 1.9446-.5158.5157-1.2152.8054-1.94456.8054-.72937 0-1.42883-.2897-1.94455-.8054-.51575-.5157-.80545-1.2152-.80545-1.9446zm-1.85797-20.64599c-.24878 0-.48736-.09875-.66327-.27466-.17593-.1759-.27475-.41455-.27475-.66333s.09882-.48742.27475-.66333c.17591-.1759.41449-.27465.66327-.27465h19.89995c.2488 0 .4874.09875.6633.27465.1759.17591.2747.41455.2747.66333s-.0988.48743-.2747.66333c-.1759.17591-.4145.27466-.6633.27466z" fill="#f16d7f"/></svg>