<svg fill="none" height="26.791992" viewBox="0 0 26.0016 26.792" width="26.001587" xmlns="http://www.w3.org/2000/svg"><path d="m18.0615 17.4149c1.6117-1.76 2.5686-4.0211 2.7102-6.4034.1415-2.38223-.5409-4.74075-1.9328-6.67922-1.3919-1.9386-3.4085-3.339238-5.711-3.966557-2.3026-.627442-4.75082-.4434818-6.93381.520996-2.18286.964351-3.96753 2.650631-5.05408 4.775391-1.0866653 2.12476-1.409053 4.55869-.913081 6.89309.495971 2.3344 1.780031 4.4271 3.636601 5.9266 1.85656 1.4995 4.1726 2.3145 6.55907 2.3081 2.2523.0032 4.4439-.7308 6.24-2.0899l7.7479 7.807c.0856.0891.188.1601.3013.2091.1134.0489.2353.0747.3588.0759.1236.0004.2461-.0248.3597-.0737.1135-.0491.2157-.121.3003-.2113.1739-.181.271-.4222.271-.673 0-.251-.0971-.4922-.271-.673zm-16.17295-7.125c.01282-1.68516.52429-3.32896 1.46997-4.72398s2.2832-2.47888 3.84387-3.11487 3.27481-.79578 4.92611-.45898c1.6514.33667 3.1661 1.15478 4.3532 2.35107s1.9935 2.71716 2.3175 4.37109c.324 1.65397.151 3.36667-.497 4.92247s-1.7421 2.8849-3.1444 3.8197c-1.4023.935-3.0499 1.4337-4.7352 1.4336-2.27148-.0108-4.44579-.9226-6.04577-2.5349-1.59997-1.6123-2.49487-3.7937-2.48828-6.0652z" fill="#e8e8e8"/></svg>