<svg fill="none" height="16" viewBox="0 0 11.9193 16" width="11.919312" xmlns="http://www.w3.org/2000/svg" xmlns:xlink="http://www.w3.org/1999/xlink"><clipPath id="a"><path d="m0 0h11.919281v16h-11.919281z"/></clipPath><path d="m0 0h11.919281v16h-11.919281z" fill="none"/><g clip-path="url(#a)"><path d="m6.33209.203125c-3.18463 0-6.33209 2.137515-6.33209 5.596865 0 2.20001 1.22919 3.45001 1.97412 3.45001.30731 0 .48425-.86249.48425-1.10626 0-.29062-.73565-.90936-.73565-2.11875 0-2.51248 1.89959-4.29373 4.35797-4.29373 2.11383 0 3.67822 1.20935 3.67822 3.43125 0 1.65936-.66113 4.77188-2.80292 4.77188-.77288 0-1.43402-.5625-1.43402-1.36878 0-1.18124.81946-2.32498.81946-3.54373 0-2.06876-2.91461-1.69376-2.91461.80624 0 .525.06518 1.10627.29797 1.58439-.42834 1.85623-1.30371 4.62189-1.30371 6.53439 0 .5906.0838 1.1718.13971 1.7625.10553.1187.05274.1062.21417.0469 1.5644-2.1563 1.50855-2.5782 2.21625-5.4.38178.7312 1.36884 1.125 2.15106 1.125 3.29643 0 4.77703-3.23441 4.77703-6.15006 0-3.10312-2.66326-5.128115-5.58721-5.128115z" fill="#000"/></g></svg>